<?xml version="1.0" encoding="utf-8"?>
<!-- Generator: Adobe Illustrator 21.0.2, SVG Export Plug-In . SVG Version: 6.00 Build 0)  -->
<svg version="1.1" id="Layer_1" xmlns:sketch="http://www.bohemiancoding.com/sketch/ns"
	 xmlns="http://www.w3.org/2000/svg" xmlns:xlink="http://www.w3.org/1999/xlink" x="0px" y="0px" viewBox="0 0 22 22"
	 style="enable-background:new 0 0 22 22;" xml:space="preserve">
<style type="text/css">
	.st0{fill:none;stroke:#993366;stroke-linecap:round;stroke-linejoin:round;}
</style>
<title>Icon / User 02</title>
<desc>Created with sketchtool.</desc>
<g id="Lithan---Header-NEW-_x28_Desktop_x29_" sketch:type="MSPage">
	<g id="Desktop-Menu---Countries---Option-02" transform="translate(-1080.000000, -22.000000)" sketch:type="MSArtboardGroup">
		<g id="Nav-_x2F_-Desktop-03" sketch:type="MSLayerGroup">
			<path id="Icon-_x2F_-User-02" sketch:type="MSShapeGroup" class="st0" d="M1091,42.5c-4.1,0-7.8-0.6-9.5-1.5c0,0,0-0.4,0-0.5
				c0-1.2,3.2-3.4,7.4-4.1c0.7,0.3,1.3,0.4,2.2,0.4c0.9,0,1.7-0.2,2.4-0.6c4.4,0.6,7.2,2.9,7.2,4.2c0,0.1,0,0.5,0,0.5
				C1098.7,42,1095.1,42.5,1091,42.5z M1087.1,31.5v-4c0-2.3,1.7-4.1,3.9-4.1c2.2,0,3.9,1.8,3.9,4.1v4c0,2.3-1.7,4.1-3.9,4.1
				C1088.8,35.6,1087.1,33.9,1087.1,31.5"/>
		</g>
	</g>
</g>
</svg>
